#!OML:ASF H:\IndianDance\Patient Classification 1\Patient 1\Session 1\dancer.ASF
:FULLY-SPECIFIED
:DEGREES
4119
root 23.159 13.791 -3.96652 1260.89 22.271 -183.824
lowerback 11.5791 2.04036 -3.41532
upperback -5.60889 1.99349 -3.59854
thorax -12.6795 1.12698 -2.50157
lowerneck -14.8087 -4.96527 -4.0142
upperneck 9.20139 -6.67988 6.83555
head 5.56425 -2.86877 2.18947
rclavicle 1.0635e-014 4.69132e-014
rhumerus -42.2454 -0.944866 -55.591
rradius 120.662
rwrist -4.94146
rhand -47.0915 50.9144
rfingers 7.12502
rthumb -19.7952 21.9024
lclavicle 1.0635e-014 4.69132e-014
lhumerus -4.26661 -17.5846 22.5024
lradius 94.055
lwrist 38.7736
lhand -27.5735 34.7121
lfingers 7.12502
lthumb -0.974007 -295.31
rfemur -59.0206 -24.891 15.0932
rtibia 97.6828
rfoot -2.03208 2.01439
rtoes 13.6763
lfemur -28.4399 20.501 -20.9552
ltibia 65.8568
lfoot -27.2492 2.31459
ltoes -11.6379
4120
root 23.3047 13.8907 -3.8775 1261.05 22.0015 -183.41
lowerback 11.5409 1.83628 -3.48508
upperback -5.67874 1.73828 -3.03671
thorax -12.7577 1.03059 -1.78452
lowerneck -14.1569 -5.8699 -4.48882
upperneck 8.37372 -7.88021 7.80932
head 5.32696 -3.41698 2.47164
rclavicle 2.93207e-015 0
rhumerus -42.3531 -4.24816 -53.3087
rradius 119.377
rwrist -8.35916
rhand -46.8786 47.4799
rfingers 7.12502
rthumb -19.5905 18.447
lclavicle 2.93207e-015 0
lhumerus -5.18931 -20.6956 22.4078
lradius 97.6879
lwrist 35.4136
lhand -29.4965 31.5848
lfingers 7.12502
lthumb -2.83118 -298.454
rfemur -57.4177 -24.5499 12.9463
rtibia 96.5908
rfoot -1.72148 1.42864
rtoes 14.4164
lfemur -27.7754 19.9374 -19.7995
ltibia 64.2016
lfoot -26.3986 2.21816
ltoes -12.0116
4121
root 23.4548 14.001 -3.78791 1261.24 21.7269 -182.999
lowerback 11.4702 1.60622 -3.60861
upperback -5.75533 1.44832 -2.46276
thorax -12.8199 0.926283 -1.01608
lowerneck -13.4805 -6.75109 -4.92116
upperneck 7.52028 -9.04552 8.77423
head 5.09263 -3.95452 2.75063
rclavicle 4.27884e-014 -2.38542e-014
rhumerus -42.2787 -7.39145 -50.8702
rradius 117.71
rwrist -11.8504
rhand -46.5924 43.3229
rfingers 7.12502
rthumb -19.3154 14.2622
lclavicle 4.27884e-014 -2.38542e-014
lhumerus -6.04192 -23.7828 22.3724
lradius 101.061
lwrist 31.6675
lhand -31.4064 27.7084
lfingers 7.12502
lthumb -4.67561 -302.363
rfemur -55.7118 -24.05 10.9217
rtibia 95.1982
rfoot -1.16641 0.776409
rtoes 15.2349
lfemur -27.0357 19.2996 -18.6555
ltibia 62.3283
lfoot -25.415 2.1648
ltoes -12.536
4122
root 23.6095 14.1207 -3.69757 1261.45 21.4455 -182.597
lowerback 11.3691 1.35002 -3.78364
upperback -5.84002 1.12309 -1.8837
thorax -12.8666 0.813382 -0.205532
lowerneck -12.7962 -7.60655 -5.31027
upperneck 6.66695 -10.1739 9.73127
head 4.87022 -4.47977 3.02588
rclavicle 1.57537e-014 1.07344e-014
rhumerus -42.0118 -10.3708 -48.3653
rradius 115.671
rwrist -15.4535
rhand -46.118 38.5064
rfingers 7.12502
rthumb -18.8591 9.40069
lclavicle 1.57537e-014 1.07344e-014
lhumerus -6.82429 -26.8501 22.391
lradius 104.119
lwrist 27.568
lhand -33.3088 22.9703
lfingers 7.12502
lthumb -6.51228 -307.15
rfemur -53.9235 -23.3963 9.04037
rtibia 93.5127
rfoot -0.372316 0.0382878
rtoes 16.2962
lfemur -26.223 18.5816 -17.5318
ltibia 60.2384
lfoot -24.2924 2.15782
ltoes -13.18
4123
root 23.7686 14.2491 -3.60654 1261.69 21.1575 -182.2
lowerback 11.2333 1.06991 -4.00105
upperback -5.92775 0.767105 -1.29855
thorax -12.8868 0.692824 0.642119
lowerneck -12.1298 -8.43223 -5.65066
upperneck 5.84327 -11.2603 10.6549
head 4.66885 -4.99067 3.28758
rclavicle -4.81556e-014 -1.66979e-014
rhumerus -41.5172 -13.1812 -45.8685
rradius 113.277
rwrist -19.2113
rhand -45.3443 33.0507
rfingers 7.12502
rthumb -18.1149 3.87423
lclavicle -4.81556e-014 -1.66979e-014
lhumerus -7.53553 -29.8784 22.4586
lradius 106.834
lwrist 23.1448
lhand -35.1601 17.3978
lfingers 7.12502
lthumb -8.29927 -312.785
rfemur -52.0629 -22.5874 7.31826
rtibia 91.5386
rfoot 0.65166 -0.780713
rtoes 17.5647
lfemur -25.3342 17.7843 -16.425
ltibia 57.9357
lfoot -23.0286 2.20328
ltoes -13.9036
4124
root 23.9322 14.3849 -3.51463 1261.96 20.8622 -181.806
lowerback 11.0626 0.767974 -4.25348
upperback -6.01928 0.384476 -0.704929
thorax -12.879 0.565612 1.52385
lowerneck -11.5026 -9.22096 -5.95086
upperneck 5.07279 -12.2952 11.5316
head 4.49539 -5.4821 3.53223
rclavicle -3.55825e-014 1.05356e-014
rhumerus -40.7702 -15.8568 -43.4452
rradius 110.543
rwrist -23.2062
rhand -44.0984 27.4075
rfingers 7.12502
rthumb -16.9159 -1.87577
lclavicle -3.55825e-014 1.05356e-014
lhumerus -8.15679 -32.8579 22.5641
lradius 109.2
lwrist 18.5201
lhand -36.9406 11.1117
lfingers 7.12502
lthumb -10.0174 -319.147
rfemur -50.1475 -21.6353 5.77917
rtibia 89.2848
rfoot 1.88476 -1.67081
rtoes 18.8118
lfemur -24.3822 16.9022 -15.3325
ltibia 55.4341
lfoot -21.6168 2.2963
ltoes -14.6274
4125
root 24.0998 14.5263 -3.42208 1262.25 20.5585 -181.422
lowerback 10.8495 0.444315 -4.53596
upperback -6.11458 -0.0239542 -0.108528
thorax -12.8365 0.430865 2.42976
lowerneck -10.9366 -9.96451 -6.20493
upperneck 4.38366 -13.2706 12.342
head 4.35671 -5.94873 3.75183
rclavicle -2.92462e-014 -1.2424e-014
rhumerus -39.7414 -18.4092 -41.1635
rradius 107.501
rwrist -27.4915
rhand -42.4409 21.5547
rfingers 7.12502
rthumb -15.3199 -7.8578
lclavicle -2.92462e-014 -1.2424e-014
lhumerus -8.68699 -35.7958 22.6797
lradius 111.272
lwrist 13.8527
lhand -38.6412 4.4804
lfingers 7.12502
lthumb -11.6577 -325.864
rfemur -48.1918 -20.5582 4.41841
rtibia 86.7834
rfoot 3.2821 -2.59827
rtoes 19.9486
lfemur -23.3969 15.9252 -14.2639
ltibia 52.8074
lfoot -20.0915 2.44707
ltoes -15.2176
4126
root 24.271 14.6716 -3.32907 1262.58 20.245 -181.041
lowerback 10.5837 0.103308 -4.82494
upperback -6.21059 -0.448154 0.489681
thorax -12.7484 0.290116 3.34219
lowerneck -10.4644 -10.666 -6.42399
upperneck 3.80677 -14.1927 13.0692
head 4.26433 -6.39145 3.93956
rclavicle 4.46644e-015 -1.11568e-014
rhumerus -38.4185 -20.8878 -39.059
rradius 104.177
rwrist -32.1455
rhand -40.4553 15.7838
rfingers 7.12502
rthumb -13.4066 -13.7648
lclavicle 4.46644e-015 -1.11568e-014
lhumerus -9.09496 -38.6972 22.7789
lradius 113.115
lwrist 9.33631
lhand -40.2146 -2.05242
lfingers 7.12502
lthumb -13.1747 -332.489
rfemur -46.2113 -19.371 3.24258
rtibia 84.032
rfoot 4.83906 -3.52404
rtoes 20.9224
lfemur -22.3821 14.8481 -13.2156
ltibia 50.0485
lfoot -18.4335 2.67739
ltoes -15.5267
4127
root 24.446 14.7997 -3.23438 1262.95 19.9256 -180.671
lowerback 10.2401 -0.255959 -5.11983
upperback -6.30428 -0.88815 1.08721
thorax -12.5946 0.141507 4.2559
lowerneck -10.1241 -11.3193 -6.59977
upperneck 3.36919 -15.0569 13.6959
head 4.22716 -6.8046 4.08606
rclavicle 5.40943e-014 2.98177e-015
rhumerus -36.7807 -23.3503 -37.1607
rradius 100.572
rwrist -37.2515
rhand -38.2336 10.3856
rfingers 7.12502
rthumb -11.2645 -19.292
lclavicle 5.40943e-014 2.98177e-015
lhumerus -9.37841 -41.5498 22.8442
lradius 114.793
lwrist 5.14585
lhand -41.6505 -7.94326
lfingers 7.12502
lthumb -14.5585 -338.474
rfemur -44.3479 -18.1158 2.21557
rtibia 81.161
rfoot 6.5264 -4.35816
rtoes 21.669
lfemur -21.4364 13.6652 -12.187
ltibia 47.2794
lfoot -16.6621 3.04154
ltoes -15.38
4128
root 24.6231 14.9424 -3.14126 1263.37 19.5984 -180.323
lowerback 9.8027 -0.633103 -5.4112
upperback -6.39312 -1.34274 1.67123
thorax -12.3621 -0.0179085 5.14789
lowerneck -9.9277 -11.9259 -6.72766
upperneck 3.08315 -15.8695 14.2263
head 4.24852 -7.18777 4.18941
rclavicle -3.13086e-015 -1.15295e-014
rhumerus -34.8262 -25.8571 -35.5058
rradius 96.7066
rwrist -42.7854
rhand -35.9941 5.30126
rfingers 7.12502
rthumb -9.10412 -24.4822
lclavicle -3.13086e-015 -1.15295e-014
lhumerus -9.50283 -44.3722 22.7945
lradius 116.393
lwrist 1.45484
lhand -42.9717 -12.7737
lfingers 7.12502
lthumb -15.8311 -343.401
rfemur -42.4112 -16.7895 1.35879
rtibia 77.9973
rfoot 8.31331 -5.0834
rtoes 22.1024
lfemur -20.4765 12.3721 -11.2326
ltibia 44.4449
lfoot -14.7936 3.68721
ltoes -14.6877
4129
root 24.8021 15.0792 -3.0484 1263.85 19.2633 -179.979
lowerback 9.25815 -1.03013 -5.66468
upperback -6.47801 -1.80917 2.23962
thorax -12.0446 -0.191661 5.99174
lowerneck -9.87847 -12.4888 -6.82845
upperneck 2.95471 -16.6357 14.6839
head 4.33285 -7.54032 4.25761
rclavicle 8.26944e-014 -7.95139e-015
rhumerus -32.5745 -28.4598 -34.1131
rradius 92.5934
rwrist -48.6877
rhand -33.9269 0.606144
rfingers 7.12502
rthumb -7.10901 -29.2545
lclavicle 8.26944e-014 -7.95139e-015
lhumerus -9.45445 -47.142 22.5937
lradius 117.95
lwrist -1.61401
lhand -44.1169 -16.5017
lfingers 7.12502
lthumb -16.9337 -347.22
rfemur -40.5393 -15.4304 0.656524
rtibia 74.6831
rfoot 10.1735 -5.61651
rtoes 22.1843
lfemur -19.6166 10.9829 -10.3295
ltibia 41.7173
lfoot -12.8855 4.70487
ltoes -13.1882
4130
root 24.9824 15.2066 -2.95575 1264.4 18.9226 -179.645
lowerback 8.60159 -1.4466 -5.86887
upperback -6.55902 -2.28696 2.7834
thorax -11.6412 -0.382441 6.76667
lowerneck -9.96426 -13.0058 -6.90398
upperneck 2.97067 -17.3539 15.0855
head 4.47432 -7.85975 4.29626
rclavicle 8.88071e-014 -9.14409e-015
rhumerus -30.0505 -31.2118 -33.0029
rradius 88.2502
rwrist -54.8289
rhand -32.1203 -3.67058
rfingers 7.12502
rthumb -5.3649 -33.5827
lclavicle 8.88071e-014 -9.14409e-015
lhumerus -9.22396 -49.834 22.2076
lradius 119.472
lwrist -3.96364
lhand -45.0896 -19.2703
lfingers 7.12502
lthumb -17.8698 -350.071
rfemur -38.7506 -14.0586 0.0893265
rtibia 71.2327
rfoot 12.0885 -5.92502
rtoes 21.956
lfemur -18.8734 9.54935 -9.49803
ltibia 39.1461
lfoot -10.9695 6.22934
ltoes -10.8281
